<svg xmlns="http://www.w3.org/2000/svg" version="1.1" xmlns:xlink="http://www.w3.org/1999/xlink" xmlns:svgjs="http://svgjs.dev/svgjs" width="988" height="1140"><svg width="988" height="1140" viewBox="0 0 988 1140" fill="none" xmlns="http://www.w3.org/2000/svg">
<path d="M494 0L987.634 285V855L494 1140L0.365234 855V285L494 0Z" fill="#F3F3F3"></path>
<path fill-rule="evenodd" clip-rule="evenodd" d="M602.506 418.5L494.253 356L386 418.5V543.5L494.253 606L602.506 543.5V418.5ZM541.885 453.5L494.253 426L446.622 453.5V508.5L494.253 536L541.885 508.5V453.5Z" fill="#9C36CF"></path>
<path fill-rule="evenodd" clip-rule="evenodd" d="M446.506 418.5L338.253 356L230 418.5V543.5L338.253 606L446.506 543.5V418.5ZM385.885 453.5L338.253 426L290.622 453.5V508.5L338.253 536L385.885 508.5V453.5Z" fill="#9C36CF"></path>
<path fill-rule="evenodd" clip-rule="evenodd" d="M758.506 418.5L650.253 356L542 418.5V543.5L650.253 606L758.506 543.5V418.5ZM697.885 453.5L650.253 426L602.622 453.5V508.5L650.253 536L697.885 508.5V453.5Z" fill="#9C36CF"></path>
<path fill-rule="evenodd" clip-rule="evenodd" d="M524.506 553.5L416.253 491L308 553.5V678.5L416.253 741L524.506 678.5V553.5ZM463.885 588.5L416.253 561L368.622 588.5V643.5L416.253 671L463.885 643.5V588.5Z" fill="#9C36CF"></path>
<path fill-rule="evenodd" clip-rule="evenodd" d="M680.506 553.5L572.253 491L464 553.5V678.5L572.253 741L680.506 678.5V553.5ZM619.885 588.5L572.253 561L524.622 588.5V643.5L572.253 671L619.885 643.5V588.5Z" fill="#9C36CF"></path>
<path fill-rule="evenodd" clip-rule="evenodd" d="M602.506 688.5L494.253 626L386 688.5V813.5L494.253 876L602.506 813.5V688.5ZM541.885 723.5L494.253 696L446.622 723.5V778.5L494.253 806L541.885 778.5V723.5Z" fill="#9C36CF"></path>
<path fill-rule="evenodd" clip-rule="evenodd" d="M529 90.2073L494 70L60.9873 320V820L494 1070L927.013 820V320L926.964 319.972L866.342 354.972L866.391 355V785L494 1000L121.609 785V355L494 140L529 160.207V90.2073Z" fill="#9C36CF"></path>
<rect x="459" y="118" width="70" height="282" fill="#9C36CF"></rect>
</svg><style>@media (prefers-color-scheme: light) { :root { filter: none; } }
@media (prefers-color-scheme: dark) { :root { filter: none; } }
</style></svg>