<?xml version="1.0" standalone="no"?>
<!DOCTYPE svg PUBLIC "-//W3C//DTD SVG 20010904//EN"
 "http://www.w3.org/TR/2001/REC-SVG-20010904/DTD/svg10.dtd">
<svg version="1.0" xmlns="http://www.w3.org/2000/svg"
 width="1140.000000pt" height="1140.000000pt" viewBox="0 0 1140.000000 1140.000000"
 preserveAspectRatio="xMidYMid meet">
<metadata>
Created by potrace 1.14, written by Peter Selinger 2001-2017
</metadata>
<g transform="translate(0.000000,1140.000000) scale(0.100000,-0.100000)"
fill="#000000" stroke="none">
<path d="M5600 10652 c-52 -30 -212 -123 -355 -205 -143 -83 -354 -205 -470
-272 -115 -67 -322 -186 -460 -265 -137 -79 -340 -196 -450 -260 -110 -64
-227 -132 -260 -150 -33 -18 -150 -86 -260 -150 -110 -64 -312 -181 -450 -260
-137 -79 -340 -196 -450 -260 -110 -64 -227 -131 -260 -150 -33 -18 -123 -70
-200 -116 -138 -80 -514 -297 -587 -338 l-38 -21 0 -2505 0 -2505 38 -21 c68
-38 445 -255 562 -324 63 -37 205 -119 315 -183 192 -110 449 -258 845 -487
102 -58 309 -178 460 -264 151 -87 280 -162 285 -166 6 -4 118 -69 250 -145
253 -145 467 -268 885 -510 140 -81 355 -205 478 -275 l223 -129 227 131 c125
72 279 161 342 198 63 36 223 129 355 205 430 247 688 396 820 473 72 42 204
118 295 170 91 52 248 142 350 202 102 59 289 167 415 240 127 73 289 166 360
208 72 42 229 132 350 202 121 70 328 189 460 265 132 76 268 155 302 174 l63
36 0 2503 c0 1995 -3 2502 -13 2502 -12 0 -145 -74 -454 -254 l-153 -89 0
-2152 c0 -1993 -1 -2153 -17 -2159 -9 -4 -127 -71 -262 -150 -135 -78 -354
-205 -486 -281 -318 -183 -660 -380 -820 -473 -126 -73 -503 -291 -730 -421
-204 -118 -559 -323 -770 -446 -115 -67 -237 -137 -270 -155 -33 -18 -129 -73
-212 -123 l-153 -89 -162 95 c-90 52 -282 163 -428 247 -459 265 -698 403
-930 537 -124 72 -263 152 -310 178 -47 27 -101 58 -121 71 -20 13 -160 94
-310 180 -151 87 -384 221 -519 299 -135 78 -294 170 -355 204 -60 35 -209
121 -331 192 -121 71 -228 131 -237 135 -16 6 -17 155 -17 2154 0 1990 1 2148
17 2154 9 4 134 75 277 158 144 83 362 210 486 281 124 71 284 163 355 205 72
42 220 127 330 190 110 63 247 142 305 176 58 35 157 92 220 128 63 36 230
132 370 213 140 81 359 207 485 280 127 73 293 169 370 214 l140 81 3 -1067
c1 -587 -1 -1070 -5 -1074 -7 -7 -173 -104 -370 -216 l-43 -25 -82 50 c-46 28
-189 111 -318 185 -129 74 -267 153 -306 176 l-71 42 -204 -119 c-112 -65
-316 -183 -454 -262 -137 -79 -292 -168 -342 -197 l-93 -54 0 -629 0 -628 152
-89 c84 -48 258 -149 388 -223 l235 -135 3 -451 2 -452 233 -134 c127 -75 302
-176 387 -225 l155 -89 3 -451 2 -451 238 -137 c130 -76 320 -186 422 -245
291 -169 424 -243 435 -243 6 0 55 26 110 58 165 95 475 274 730 422 l240 140
3 451 2 450 153 88 c406 234 604 349 620 362 16 14 17 49 17 461 l0 446 223
127 c122 70 294 170 382 221 l160 94 2 634 3 634 -88 49 c-97 55 -419 240
-768 443 l-231 134 -219 -127 c-120 -69 -295 -171 -389 -226 -162 -95 -171
-99 -195 -86 -14 8 -108 63 -210 122 l-185 106 -5 1433 -5 1432 -175 102 c-96
56 -177 101 -180 101 -3 0 -48 -25 -100 -56z m-1360 -3577 c47 -27 149 -86
228 -132 l142 -84 -2 -272 -3 -271 -55 -32 c-30 -17 -135 -77 -232 -133 l-177
-102 -168 99 c-92 54 -196 114 -230 132 l-63 35 0 275 0 275 38 21 c20 11 124
71 231 132 107 61 197 110 200 108 3 -2 44 -25 91 -51z m1595 -20 c66 -38 168
-97 228 -132 l107 -64 -2 -272 -3 -271 -70 -40 c-38 -21 -143 -81 -231 -133
l-162 -93 -133 78 c-74 44 -180 105 -236 136 l-103 57 0 269 0 268 43 25 c23
13 129 74 236 135 107 61 197 110 200 108 3 -2 60 -34 126 -71z m1610 -30 c66
-37 157 -90 203 -117 l82 -50 -2 -271 -3 -271 -170 -98 c-93 -54 -198 -114
-231 -133 l-61 -35 -134 78 c-74 43 -178 102 -231 132 l-98 55 0 275 0 275 38
21 c20 11 124 71 231 132 l194 112 31 -19 c17 -10 85 -49 151 -86z m-2385
-1325 c52 -29 148 -84 213 -122 l117 -70 -2 -271 -3 -271 -70 -40 c-38 -21
-143 -81 -232 -133 l-162 -94 -133 79 c-73 43 -179 104 -235 136 l-103 57 0
268 0 267 148 86 c307 179 325 188 347 174 12 -8 63 -37 115 -66z m1535 15
c28 -16 119 -68 203 -118 l152 -89 -2 -271 -3 -271 -170 -98 c-93 -54 -198
-114 -231 -133 l-61 -35 -134 78 c-74 43 -180 104 -236 136 l-103 57 0 267 0
268 148 86 c81 48 174 101 207 119 33 18 73 41 89 50 29 17 31 17 60 0 17 -10
54 -31 81 -46z m-780 -1350 c28 -16 119 -68 203 -118 l152 -89 -2 -271 -3
-271 -170 -98 c-93 -54 -198 -114 -232 -134 l-63 -36 -107 65 c-60 35 -165 97
-235 136 l-128 72 0 267 0 268 183 106 c316 183 287 170 322 149 16 -10 53
-31 80 -46z"/>
</g>
</svg>
